Coordinates
version=1
nRows=29
nColumns=24
inDegrees=yes

Units are S.I. units (second, meters, Newtons, ...)
Angles are in degrees.

endheader
time	pelvis_tilt	pelvis_list	pelvis_rotation	pelvis_tx	pelvis_ty	pelvis_tz	hip_flexion_r	hip_adduction_r	hip_rotation_r	knee_angle_r	ankle_angle_r	subtalar_angle_r	mtp_angle_r	hip_flexion_l	hip_adduction_l	hip_rotation_l	knee_angle_l	ankle_angle_l	subtalar_angle_l	mtp_angle_l	lumbar_extension	lumbar_bending	lumbar_rotation
      1.27516667	     -0.83740875	      3.57931884	     -4.08688411	      0.22629376	      0.90834107	      0.30736537	     15.84645159	     -7.32480681	     -9.21332999	    -71.79396532	     -3.43509743	      4.40731917	      9.34361054	     13.20863162	      6.91118237	     -5.28806995	    -18.77073609	      8.46837279	     -7.92029502	      1.91032902	     -6.02190001	     -7.40412516	      3.34930805
      1.27933333	     -0.79748455	      3.43764803	     -3.94950834	      0.23146411	      0.90955370	      0.30706465	     16.40636699	     -7.15042066	     -9.38517652	    -71.47538097	     -2.70922125	      4.47807322	      9.24212327	     12.50409264	      6.84844101	     -5.11128250	    -18.19979326	      8.52080921	     -7.82080333	      1.93424719	     -6.13883582	     -7.22087545	      3.01875996
      1.28350000	     -0.78077978	      3.27996867	     -3.79814147	      0.23662900	      0.91071893	      0.30676773	     16.96908616	     -6.94683879	     -9.56728870	    -71.07608329	     -2.04375329	      4.43899899	      9.14439384	     11.82900818	      6.76225636	     -4.92962587	    -17.63625962	      8.54776531	     -7.73725175	      1.95658774	     -6.20799250	     -7.02815827	      2.75974373
      1.28766667	     -0.75334696	      3.11756542	     -3.63935584	      0.24180145	      0.91188375	      0.30646015	     17.49655160	     -6.73827075	     -9.75552968	    -70.59873157	     -1.41765374	      4.41333330	      9.04995255	     11.13690794	      6.66980214	     -4.74331897	    -17.05875206	      8.56692700	     -7.64956352	      1.97900098	     -6.28299893	     -6.83111489	      2.50651042
      1.29183333	     -0.71310145	      2.94751961	     -3.46962099	      0.24696826	      0.91304430	      0.30613558	     17.98797587	     -6.52226302	     -9.95253945	    -70.04972010	     -0.82013510	      4.39334945	      8.96111473	     10.43010569	      6.56849642	     -4.54588890	    -16.47592084	      8.57874426	     -7.56567943	      2.00076085	     -6.37575750	     -6.61921429	      2.25495797
      1.29600000	     -0.66795518	      2.79128202	     -3.29050325	      0.25212580	      0.91417055	      0.30578852	     18.46017266	     -6.32511772	    -10.15257066	    -69.44501513	     -0.24282641	      4.36710276	      8.79469271	      9.70937206	      6.48484803	     -4.31625464	    -15.86420223	      8.53555678	     -7.53205283	      2.03692522	     -6.47668428	     -6.43093669	      1.92372837
      1.30016667	     -0.60087645	      2.59606292	     -3.09918615	      0.25728828	      0.91531670	      0.30544234	     18.87197505	     -6.08384851	    -10.37200320	    -68.74497942	      0.28039774	      4.36597706	      8.72012949	      8.97495572	      6.34949856	     -4.10943600	    -15.28304281	      8.57213827	     -7.42771125	      2.05673429	     -6.60076333	     -6.17860616	      1.73105633
      1.30433333	     -0.54071650	      2.42354813	     -2.89347772	      0.26243534	      0.91640767	      0.30506160	     19.27877229	     -5.87306779	    -10.59509645	    -67.99676360	      0.80265390	      4.37120663	      8.46073537	      8.23595545	      6.24595112	     -3.83262765	    -14.66074291	      8.51152868	     -7.46251255	      2.11130543	     -6.71001771	     -5.96516957	      1.37118869
      1.30850000	     -0.44058986	      2.23426612	     -2.69400748	      0.26758451	      0.91751787	      0.30470409	     19.61908393	     -5.63910591	    -10.81125951	    -67.17360875	      1.26755055	      4.35752139	      8.39243199	      7.46463124	      6.10763398	     -3.63682571	    -14.06498091	      8.53181006	     -7.31577918	      2.12941508	     -6.87930559	     -5.72668385	      1.18637552
      1.31266667	     -0.34037937	      2.06288531	     -2.48090300	      0.27271711	      0.91858102	      0.30432474	     19.94335056	     -5.43023787	    -11.03465863	    -66.29875386	      1.73467415	      4.34368327	      8.27542507	      6.68579292	      5.99137102	     -3.39021441	    -13.44015346	      8.47547095	     -7.27016695	      2.15480503	     -7.04561513	     -5.51669424	      0.86702108
      1.31683333	     -0.23295224	      1.86897617	     -2.26382076	      0.27785197	      0.91961377	      0.30394439	     20.23433166	     -5.19507368	    -11.26239835	    -65.34890407	      2.13452874	      4.34997973	      8.20173348	      5.90866041	      5.84134669	     -3.16406091	    -12.83920112	      8.49021978	     -7.18917139	      2.17275912	     -7.21068767	     -5.26403602	      0.65010408
      1.32100000	     -0.11616217	      1.68717551	     -2.04204623	      0.28297064	      0.92060679	      0.30355464	     20.50005317	     -4.97425050	    -11.48658218	    -64.34692687	      2.52487481	      4.34568335	      8.12900224	      5.12054281	      5.70031147	     -2.93118012	    -12.22610515	      8.46723781	     -7.12016339	      2.18964652	     -7.38885496	     -5.02780631	      0.39301383
      1.32516667	      0.01076758	      1.51481176	     -1.81526112	      0.28807650	      0.92155326	      0.30316090	     20.73985838	     -4.76487794	    -11.70973849	    -63.29487627	      2.89052442	      4.33282719	      8.04306933	      4.32097706	      5.56547658	     -2.68220669	    -11.60540425	      8.43211925	     -7.07605062	      2.20872409	     -7.57957854	     -4.80259990	      0.11274382
      1.32933333	      0.12204670	      1.32852112	     -1.57526614	      0.29316779	      0.92243543	      0.30277410	     20.97006760	     -4.53562699	    -11.93840560	    -62.17101238	      3.24451929	      4.31715586	      7.98369609	      3.56397714	      5.40164249	     -2.46641369	    -11.03346321	      8.38590994	     -6.99624001	      2.22212908	     -7.74730352	     -4.56733886	     -0.09804515
      1.33350000	      0.27466762	      1.17754237	     -1.35890092	      0.29826457	      0.92329594	      0.30238999	     21.15428274	     -4.34660988	    -12.13767017	    -61.01916276	      3.53118046	      4.28757743	      7.89751622	      2.72627342	      5.27960179	     -2.21753161	    -10.38154968	      8.37176076	     -6.96202058	      2.24080510	     -7.96925903	     -4.35620447	     -0.39234154
      1.33766667	      0.39914842	      1.03753031	     -1.12318366	      0.30334777	      0.92405197	      0.30198423	     21.35095389	     -4.17246779	    -12.34684694	    -59.82097819	      3.83936694	      4.25490370	      7.71291900	      1.92978494	      5.16505978	     -1.93122503	     -9.74276876	      8.26638286	     -7.02584656	      2.27764154	     -8.14117488	     -4.16438602	     -0.72972098
      1.34183333	      0.53988878	      0.88213407	     -0.89919484	      0.30840812	      0.92477548	      0.30162690	     21.51115923	     -3.96668546	    -12.53196930	    -58.55571930	      4.07377892	      4.20385130	      7.63095524	      1.14001997	      5.01515920	     -1.73208580	     -9.15700136	      8.28451120	     -6.90521986	      2.29674036	     -8.34854417	     -3.95398618	     -0.90900923
      1.34600000	      0.68234103	      0.74435742	     -0.67439074	      0.31346487	      0.92543081	      0.30126383	     21.65549599	     -3.78083907	    -12.71153954	    -57.24872671	      4.29201579	      4.13491409	      7.54660346	      0.34688348	      4.88048772	     -1.52251998	     -8.56243094	      8.26635527	     -6.82829312	      2.31559873	     -8.55014097	     -3.76245521	     -1.14621780
      1.35016667	      0.82171017	      0.61693997	     -0.45098459	      0.31851998	      0.92601318	      0.30091407	     21.78872404	     -3.60234659	    -12.88098937	    -55.89748189	      4.48127473	      4.05181869	      7.45930351	     -0.44186053	      4.75047472	     -1.30968264	     -7.96865548	      8.24022895	     -6.76382836	      2.33463962	     -8.74478629	     -3.57828598	     -1.39041254
      1.35433333	      0.94487947	      0.49036436	     -0.21910784	      0.32356403	      0.92651405	      0.30056401	     21.91800688	     -3.42298967	    -13.05062742	    -54.49162721	      4.66077832	      3.96328272	      7.38925653	     -1.19306268	      4.61123512	     -1.12008081	     -7.41002209	      8.19784994	     -6.67798728	      2.34945581	     -8.91531469	     -3.39580257	     -1.59930147
      1.35850000	      1.07498165	      0.38634984	     -0.00415233	      0.32861018	      0.92694116	      0.30023244	     22.03312287	     -3.26178402	    -13.19205617	    -53.05624630	      4.79683139	      3.84185546	      7.31782484	     -1.96267811	      4.49353775	     -0.92660315	     -6.83091912	      8.17684847	     -6.59731663	      2.36432579	     -9.09661815	     -3.23715022	     -1.82594597
      1.36266667	      1.20482468	      0.29475849	      0.20327358	      0.33365406	      0.92729925	      0.29992325	     22.13463235	     -3.10747868	    -13.31595087	    -51.58060094	      4.89765192	      3.70044835	      7.24028964	     -2.73274814	      4.38339101	     -0.73806823	     -6.24801611	      8.15760670	     -6.52893128	      2.38031828	     -9.27696770	     -3.09552859	     -2.06038845
      1.36683333	      1.33646583	      0.22735353	      0.39359638	      0.33869822	      0.92756971	      0.29963647	     22.22922735	     -2.97140608	    -13.40893735	    -50.08214843	      4.95778285	      3.53507894	      7.13842393	     -3.51518168	      4.29757061	     -0.53306281	     -5.64740120	      8.15841727	     -6.48611294	      2.40082887	     -9.46153730	     -2.98457863	     -2.31682009
      1.37100000	      1.44664673	      0.16073110	      0.58768035	      0.34374650	      0.92775342	      0.29935583	     22.32453811	     -2.83366846	    -13.50154213	    -48.53379493	      5.01246507	      3.36169923	      7.03375465	     -4.25842552	      4.20469266	     -0.35244748	     -5.07806577	      8.13843939	     -6.42275913	      2.42099288	     -9.61297155	     -2.86917515	     -2.54080951
      1.37516667	      1.53859760	      0.09422043	      0.78582631	      0.34881244	      0.92785176	      0.29907725	     22.41558917	     -2.69548053	    -13.59702915	    -46.93662316	      5.06077161	      3.19135679	      6.95365523	     -4.96367024	      4.10384833	     -0.21134997	     -4.54695479	      8.10477256	     -6.32280043	      2.43555189	     -9.72662980	     -2.74653005	     -2.72765069
      1.37933333	      1.65411208	      0.06137706	      0.94663376	      0.35388130	      0.92788589	      0.29885242	     22.48457316	     -2.57660517	    -13.63651858	    -45.33363874	      5.04374357	      2.94944739	      6.81840434	     -5.72906295	      4.04196251	     -0.03371235	     -3.95195126	      8.11631615	     -6.28095139	      2.46022377	     -9.88791262	     -2.67737055	     -2.97718232
      1.38350000	      1.73634048	      0.02062926	      1.11380430	      0.35894623	      0.92782342	      0.29863026	     22.56341888	     -2.44607699	    -13.67707608	    -43.67539398	      5.02409396	      2.73388126	      6.70695955	     -6.42947214	      3.96412063	      0.11019059	     -3.41489450	      8.11521449	     -6.19069712	      2.47960156	    -10.00836302	     -2.59378193	     -3.17039793
      1.38766667	      1.81339916	     -0.00680679	      1.26794724	      0.36404991	      0.92767686	      0.29842321	     22.63349117	     -2.32715559	    -13.70730448	    -41.99432480	      4.98578247	      2.48831458	      6.58568987	     -7.12998031	      3.89927326	      0.23823913	     -2.87355021	      8.12163817	     -6.10663956	      2.49957009	    -10.10884707	     -2.52693691	     -3.37170472
      1.39183333	      1.87744746	     -0.02462647	      1.41511507	      0.36915081	      0.92745256	      0.29823553	     22.69909746	     -2.20874098	    -13.71011501	    -40.27584855	      4.93055404	      2.24619047	      6.47405084	     -7.80281738	      3.84141599	      0.36230076	     -2.36379909	      8.13175674	     -6.00952566	      2.51701013	    -10.19460868	     -2.46098855	     -3.55917647
